%TF.GenerationSoftware,KiCad,Pcbnew,(6.0.4)*%
%TF.CreationDate,2022-07-04T15:55:19-04:00*%
%TF.ProjectId,cassowary,63617373-6f77-4617-9279-2e6b69636164,rev?*%
%TF.SameCoordinates,Original*%
%TF.FileFunction,Legend,Bot*%
%TF.FilePolarity,Positive*%
%FSLAX46Y46*%
G04 Gerber Fmt 4.6, Leading zero omitted, Abs format (unit mm)*
G04 Created by KiCad (PCBNEW (6.0.4)) date 2022-07-04 15:55:19*
%MOMM*%
%LPD*%
G01*
G04 APERTURE LIST*
%ADD10C,0.150000*%
%ADD11C,0.120000*%
G04 APERTURE END LIST*
D10*
%TO.C,U1*%
X145287904Y-73112380D02*
X145287904Y-73921904D01*
X145240285Y-74017142D01*
X145192666Y-74064761D01*
X145097428Y-74112380D01*
X144906952Y-74112380D01*
X144811714Y-74064761D01*
X144764095Y-74017142D01*
X144716476Y-73921904D01*
X144716476Y-73112380D01*
X143716476Y-74112380D02*
X144287904Y-74112380D01*
X144002190Y-74112380D02*
X144002190Y-73112380D01*
X144097428Y-73255238D01*
X144192666Y-73350476D01*
X144287904Y-73398095D01*
X152035523Y-100183809D02*
X151921238Y-100221904D01*
X151730761Y-100221904D01*
X151654571Y-100183809D01*
X151616476Y-100145714D01*
X151578380Y-100069523D01*
X151578380Y-99993333D01*
X151616476Y-99917142D01*
X151654571Y-99879047D01*
X151730761Y-99840952D01*
X151883142Y-99802857D01*
X151959333Y-99764761D01*
X151997428Y-99726666D01*
X152035523Y-99650476D01*
X152035523Y-99574285D01*
X151997428Y-99498095D01*
X151959333Y-99460000D01*
X151883142Y-99421904D01*
X151692666Y-99421904D01*
X151578380Y-99460000D01*
X151311714Y-99421904D02*
X151121238Y-100221904D01*
X150968857Y-99650476D01*
X150816476Y-100221904D01*
X150626000Y-99421904D01*
X149864095Y-100145714D02*
X149902190Y-100183809D01*
X150016476Y-100221904D01*
X150092666Y-100221904D01*
X150206952Y-100183809D01*
X150283142Y-100107619D01*
X150321238Y-100031428D01*
X150359333Y-99879047D01*
X150359333Y-99764761D01*
X150321238Y-99612380D01*
X150283142Y-99536190D01*
X150206952Y-99460000D01*
X150092666Y-99421904D01*
X150016476Y-99421904D01*
X149902190Y-99460000D01*
X149864095Y-99498095D01*
X149140285Y-100221904D02*
X149521238Y-100221904D01*
X149521238Y-99421904D01*
X148873619Y-100221904D02*
X148873619Y-99421904D01*
X148416476Y-100221904D02*
X148759333Y-99764761D01*
X148416476Y-99421904D02*
X148873619Y-99879047D01*
X156739096Y-57028781D02*
X156658284Y-57001844D01*
X156577471Y-56921032D01*
X156523597Y-56813282D01*
X156523597Y-56705532D01*
X156550534Y-56624720D01*
X156631346Y-56490033D01*
X156712158Y-56409221D01*
X156846845Y-56328409D01*
X156927658Y-56301471D01*
X157035407Y-56301471D01*
X157143157Y-56355346D01*
X157197032Y-56409221D01*
X157250906Y-56516971D01*
X157250906Y-56570845D01*
X157062345Y-56759407D01*
X156954595Y-56651658D01*
X157547218Y-56759407D02*
X156981532Y-57325093D01*
X157197032Y-57540592D01*
X157277844Y-57567529D01*
X157331719Y-57567529D01*
X157412531Y-57540592D01*
X157493343Y-57459780D01*
X157520280Y-57378967D01*
X157520280Y-57325093D01*
X157493343Y-57244280D01*
X157277844Y-57028781D01*
X157574155Y-57809966D02*
X157574155Y-57863841D01*
X157601093Y-57944653D01*
X157735780Y-58079340D01*
X157816592Y-58106277D01*
X157870467Y-58106277D01*
X157951279Y-58079340D01*
X158005154Y-58025465D01*
X158059028Y-57917715D01*
X158059028Y-57271218D01*
X158409215Y-57621404D01*
X130515722Y-87239407D02*
X130434910Y-87212470D01*
X130354097Y-87131658D01*
X130300223Y-87023908D01*
X130300223Y-86916158D01*
X130327160Y-86835346D01*
X130407972Y-86700659D01*
X130488784Y-86619847D01*
X130623471Y-86539035D01*
X130704284Y-86512097D01*
X130812033Y-86512097D01*
X130919783Y-86565972D01*
X130973658Y-86619847D01*
X131027532Y-86727597D01*
X131027532Y-86781471D01*
X130838971Y-86970033D01*
X130731221Y-86862284D01*
X131323844Y-86970033D02*
X130758158Y-87535719D01*
X130973658Y-87751218D01*
X131054470Y-87778155D01*
X131108345Y-87778155D01*
X131189157Y-87751218D01*
X131269969Y-87670406D01*
X131296906Y-87589593D01*
X131296906Y-87535719D01*
X131269969Y-87454906D01*
X131054470Y-87239407D01*
X132185841Y-87832030D02*
X131862592Y-87508781D01*
X132024216Y-87670406D02*
X131458531Y-88236091D01*
X131485468Y-88101404D01*
X131485468Y-87993654D01*
X131458531Y-87912842D01*
X132455215Y-88101404D02*
X132562964Y-88209154D01*
X132589902Y-88289966D01*
X132589902Y-88343841D01*
X132562964Y-88478528D01*
X132482152Y-88613215D01*
X132266653Y-88828714D01*
X132185841Y-88855651D01*
X132131966Y-88855651D01*
X132051154Y-88828714D01*
X131943404Y-88720964D01*
X131916467Y-88640152D01*
X131916467Y-88586277D01*
X131943404Y-88505465D01*
X132078091Y-88370778D01*
X132158903Y-88343841D01*
X132212778Y-88343841D01*
X132293590Y-88370778D01*
X132401340Y-88478528D01*
X132428277Y-88559340D01*
X132428277Y-88613215D01*
X132401340Y-88694027D01*
X131012158Y-54461844D02*
X130931346Y-54434906D01*
X130850534Y-54354094D01*
X130796659Y-54246345D01*
X130796659Y-54138595D01*
X130823597Y-54057783D01*
X130904409Y-53923096D01*
X130985221Y-53842284D01*
X131119908Y-53761471D01*
X131200720Y-53734534D01*
X131308470Y-53734534D01*
X131416219Y-53788409D01*
X131470094Y-53842284D01*
X131523969Y-53950033D01*
X131523969Y-54003908D01*
X131335407Y-54192470D01*
X131227658Y-54084720D01*
X131820280Y-54192470D02*
X131254595Y-54758155D01*
X132143529Y-54515719D01*
X131577844Y-55081404D01*
X132412903Y-54785093D02*
X131847218Y-55350778D01*
X131981905Y-55485465D01*
X132089654Y-55539340D01*
X132197404Y-55539340D01*
X132278216Y-55512402D01*
X132412903Y-55431590D01*
X132493715Y-55350778D01*
X132574528Y-55216091D01*
X132601465Y-55135279D01*
X132601465Y-55027529D01*
X132547590Y-54919780D01*
X132412903Y-54785093D01*
X156612158Y-54461844D02*
X156531346Y-54434906D01*
X156450534Y-54354094D01*
X156396659Y-54246345D01*
X156396659Y-54138595D01*
X156423597Y-54057783D01*
X156504409Y-53923096D01*
X156585221Y-53842284D01*
X156719908Y-53761471D01*
X156800720Y-53734534D01*
X156908470Y-53734534D01*
X157016219Y-53788409D01*
X157070094Y-53842284D01*
X157123969Y-53950033D01*
X157123969Y-54003908D01*
X156935407Y-54192470D01*
X156827658Y-54084720D01*
X157420280Y-54192470D02*
X156854595Y-54758155D01*
X157743529Y-54515719D01*
X157177844Y-55081404D01*
X158012903Y-54785093D02*
X157447218Y-55350778D01*
X157581905Y-55485465D01*
X157689654Y-55539340D01*
X157797404Y-55539340D01*
X157878216Y-55512402D01*
X158012903Y-55431590D01*
X158093715Y-55350778D01*
X158174528Y-55216091D01*
X158201465Y-55135279D01*
X158201465Y-55027529D01*
X158147590Y-54919780D01*
X158012903Y-54785093D01*
X156639096Y-49408781D02*
X156558284Y-49381844D01*
X156477471Y-49301032D01*
X156423597Y-49193282D01*
X156423597Y-49085532D01*
X156450534Y-49004720D01*
X156531346Y-48870033D01*
X156612158Y-48789221D01*
X156746845Y-48708409D01*
X156827658Y-48681471D01*
X156935407Y-48681471D01*
X157043157Y-48735346D01*
X157097032Y-48789221D01*
X157150906Y-48896971D01*
X157150906Y-48950845D01*
X156962345Y-49139407D01*
X156854595Y-49031658D01*
X157447218Y-49139407D02*
X156881532Y-49705093D01*
X157097032Y-49920592D01*
X157177844Y-49947529D01*
X157231719Y-49947529D01*
X157312531Y-49920592D01*
X157393343Y-49839780D01*
X157420280Y-49758967D01*
X157420280Y-49705093D01*
X157393343Y-49624280D01*
X157177844Y-49408781D01*
X157554967Y-50378528D02*
X157608842Y-50432402D01*
X157689654Y-50459340D01*
X157743529Y-50459340D01*
X157824341Y-50432402D01*
X157959028Y-50351590D01*
X158093715Y-50216903D01*
X158174528Y-50082216D01*
X158201465Y-50001404D01*
X158201465Y-49947529D01*
X158174528Y-49866717D01*
X158120653Y-49812842D01*
X158039841Y-49785905D01*
X157985966Y-49785905D01*
X157905154Y-49812842D01*
X157770467Y-49893654D01*
X157635780Y-50028341D01*
X157554967Y-50163028D01*
X157528030Y-50243841D01*
X157528030Y-50297715D01*
X157554967Y-50378528D01*
X156769722Y-87239407D02*
X156688910Y-87212470D01*
X156608097Y-87131658D01*
X156554223Y-87023908D01*
X156554223Y-86916158D01*
X156581160Y-86835346D01*
X156661972Y-86700659D01*
X156742784Y-86619847D01*
X156877471Y-86539035D01*
X156958284Y-86512097D01*
X157066033Y-86512097D01*
X157173783Y-86565972D01*
X157227658Y-86619847D01*
X157281532Y-86727597D01*
X157281532Y-86781471D01*
X157092971Y-86970033D01*
X156985221Y-86862284D01*
X157577844Y-86970033D02*
X157012158Y-87535719D01*
X157227658Y-87751218D01*
X157308470Y-87778155D01*
X157362345Y-87778155D01*
X157443157Y-87751218D01*
X157523969Y-87670406D01*
X157550906Y-87589593D01*
X157550906Y-87535719D01*
X157523969Y-87454906D01*
X157308470Y-87239407D01*
X158439841Y-87832030D02*
X158116592Y-87508781D01*
X158278216Y-87670406D02*
X157712531Y-88236091D01*
X157739468Y-88101404D01*
X157739468Y-87993654D01*
X157712531Y-87912842D01*
X158143529Y-88559340D02*
X158143529Y-88613215D01*
X158170467Y-88694027D01*
X158305154Y-88828714D01*
X158385966Y-88855651D01*
X158439841Y-88855651D01*
X158520653Y-88828714D01*
X158574528Y-88774839D01*
X158628402Y-88667089D01*
X158628402Y-88020592D01*
X158978589Y-88370778D01*
X156612158Y-92561844D02*
X156531346Y-92534906D01*
X156450534Y-92454094D01*
X156396659Y-92346345D01*
X156396659Y-92238595D01*
X156423597Y-92157783D01*
X156504409Y-92023096D01*
X156585221Y-91942284D01*
X156719908Y-91861471D01*
X156800720Y-91834534D01*
X156908470Y-91834534D01*
X157016219Y-91888409D01*
X157070094Y-91942284D01*
X157123969Y-92050033D01*
X157123969Y-92103908D01*
X156935407Y-92292470D01*
X156827658Y-92184720D01*
X157420280Y-92292470D02*
X156854595Y-92858155D01*
X157743529Y-92615719D01*
X157177844Y-93181404D01*
X158012903Y-92885093D02*
X157447218Y-93450778D01*
X157581905Y-93585465D01*
X157689654Y-93639340D01*
X157797404Y-93639340D01*
X157878216Y-93612402D01*
X158012903Y-93531590D01*
X158093715Y-93450778D01*
X158174528Y-93316091D01*
X158201465Y-93235279D01*
X158201465Y-93127529D01*
X158147590Y-93019780D01*
X158012903Y-92885093D01*
X156623722Y-82159407D02*
X156542910Y-82132470D01*
X156462097Y-82051658D01*
X156408223Y-81943908D01*
X156408223Y-81836158D01*
X156435160Y-81755346D01*
X156515972Y-81620659D01*
X156596784Y-81539847D01*
X156731471Y-81459035D01*
X156812284Y-81432097D01*
X156920033Y-81432097D01*
X157027783Y-81485972D01*
X157081658Y-81539847D01*
X157135532Y-81647597D01*
X157135532Y-81701471D01*
X156946971Y-81890033D01*
X156839221Y-81782284D01*
X157431844Y-81890033D02*
X156866158Y-82455719D01*
X157081658Y-82671218D01*
X157162470Y-82698155D01*
X157216345Y-82698155D01*
X157297157Y-82671218D01*
X157377969Y-82590406D01*
X157404906Y-82509593D01*
X157404906Y-82455719D01*
X157377969Y-82374906D01*
X157162470Y-82159407D01*
X158293841Y-82752030D02*
X157970592Y-82428781D01*
X158132216Y-82590406D02*
X157566531Y-83156091D01*
X157593468Y-83021404D01*
X157593468Y-82913654D01*
X157566531Y-82832842D01*
X158078341Y-83667902D02*
X158132216Y-83721776D01*
X158213028Y-83748714D01*
X158266903Y-83748714D01*
X158347715Y-83721776D01*
X158482402Y-83640964D01*
X158617089Y-83506277D01*
X158697902Y-83371590D01*
X158724839Y-83290778D01*
X158724839Y-83236903D01*
X158697902Y-83156091D01*
X158644027Y-83102216D01*
X158563215Y-83075279D01*
X158509340Y-83075279D01*
X158428528Y-83102216D01*
X158293841Y-83183028D01*
X158159154Y-83317715D01*
X158078341Y-83452402D01*
X158051404Y-83533215D01*
X158051404Y-83587089D01*
X158078341Y-83667902D01*
X156639096Y-59568781D02*
X156558284Y-59541844D01*
X156477471Y-59461032D01*
X156423597Y-59353282D01*
X156423597Y-59245532D01*
X156450534Y-59164720D01*
X156531346Y-59030033D01*
X156612158Y-58949221D01*
X156746845Y-58868409D01*
X156827658Y-58841471D01*
X156935407Y-58841471D01*
X157043157Y-58895346D01*
X157097032Y-58949221D01*
X157150906Y-59056971D01*
X157150906Y-59110845D01*
X156962345Y-59299407D01*
X156854595Y-59191658D01*
X157447218Y-59299407D02*
X156881532Y-59865093D01*
X157097032Y-60080592D01*
X157177844Y-60107529D01*
X157231719Y-60107529D01*
X157312531Y-60080592D01*
X157393343Y-59999780D01*
X157420280Y-59918967D01*
X157420280Y-59865093D01*
X157393343Y-59784280D01*
X157177844Y-59568781D01*
X157393343Y-60376903D02*
X157743529Y-60727089D01*
X157770467Y-60323028D01*
X157851279Y-60403841D01*
X157932091Y-60430778D01*
X157985966Y-60430778D01*
X158066778Y-60403841D01*
X158201465Y-60269154D01*
X158228402Y-60188341D01*
X158228402Y-60134467D01*
X158201465Y-60053654D01*
X158039841Y-59892030D01*
X157959028Y-59865093D01*
X157905154Y-59865093D01*
X128680788Y-59126226D02*
X128950162Y-59395600D01*
X128788537Y-58910727D02*
X128411414Y-59664974D01*
X129165661Y-59287850D01*
X129354223Y-59476412D02*
X128788537Y-60042097D01*
X128923224Y-60176784D01*
X129030974Y-60230659D01*
X129138723Y-60230659D01*
X129219536Y-60203722D01*
X129354223Y-60122910D01*
X129435035Y-60042097D01*
X129515847Y-59907410D01*
X129542784Y-59826598D01*
X129542784Y-59718849D01*
X129488910Y-59611099D01*
X129354223Y-59476412D01*
X130189282Y-60419221D02*
X130189282Y-60365346D01*
X130135407Y-60257597D01*
X130081532Y-60203722D01*
X129973783Y-60149847D01*
X129866033Y-60149847D01*
X129785221Y-60176784D01*
X129650534Y-60257597D01*
X129569722Y-60338409D01*
X129488910Y-60473096D01*
X129461972Y-60553908D01*
X129461972Y-60661658D01*
X129515847Y-60769407D01*
X129569722Y-60823282D01*
X129677471Y-60877157D01*
X129731346Y-60877157D01*
X130404781Y-60419221D02*
X130835780Y-60850219D01*
X130270094Y-61523654D02*
X131024341Y-61146531D01*
X130647218Y-61900778D01*
X131724714Y-61846903D02*
X131266778Y-61927715D01*
X131401465Y-61523654D02*
X130835780Y-62089340D01*
X131051279Y-62304839D01*
X131132091Y-62331776D01*
X131185966Y-62331776D01*
X131266778Y-62304839D01*
X131347590Y-62224027D01*
X131374528Y-62143215D01*
X131374528Y-62089340D01*
X131347590Y-62008528D01*
X131132091Y-61793028D01*
X131670839Y-62385651D02*
X131859401Y-62574213D01*
X132236524Y-62358714D02*
X131967150Y-62089340D01*
X131401465Y-62655025D01*
X131670839Y-62924399D01*
X132371211Y-63086024D02*
X132182650Y-62897462D01*
X132478961Y-62601150D02*
X131913276Y-63166836D01*
X132182650Y-63436210D01*
X156639096Y-69728781D02*
X156558284Y-69701844D01*
X156477471Y-69621032D01*
X156423597Y-69513282D01*
X156423597Y-69405532D01*
X156450534Y-69324720D01*
X156531346Y-69190033D01*
X156612158Y-69109221D01*
X156746845Y-69028409D01*
X156827658Y-69001471D01*
X156935407Y-69001471D01*
X157043157Y-69055346D01*
X157097032Y-69109221D01*
X157150906Y-69216971D01*
X157150906Y-69270845D01*
X156962345Y-69459407D01*
X156854595Y-69351658D01*
X157447218Y-69459407D02*
X156881532Y-70025093D01*
X157097032Y-70240592D01*
X157177844Y-70267529D01*
X157231719Y-70267529D01*
X157312531Y-70240592D01*
X157393343Y-70159780D01*
X157420280Y-70078967D01*
X157420280Y-70025093D01*
X157393343Y-69944280D01*
X157177844Y-69728781D01*
X157689654Y-70833215D02*
X157581905Y-70725465D01*
X157554967Y-70644653D01*
X157554967Y-70590778D01*
X157581905Y-70456091D01*
X157662717Y-70321404D01*
X157878216Y-70105905D01*
X157959028Y-70078967D01*
X158012903Y-70078967D01*
X158093715Y-70105905D01*
X158201465Y-70213654D01*
X158228402Y-70294467D01*
X158228402Y-70348341D01*
X158201465Y-70429154D01*
X158066778Y-70563841D01*
X157985966Y-70590778D01*
X157932091Y-70590778D01*
X157851279Y-70563841D01*
X157743529Y-70456091D01*
X157716592Y-70375279D01*
X157716592Y-70321404D01*
X157743529Y-70240592D01*
X140621238Y-100183809D02*
X140506952Y-100221904D01*
X140316476Y-100221904D01*
X140240285Y-100183809D01*
X140202190Y-100145714D01*
X140164095Y-100069523D01*
X140164095Y-99993333D01*
X140202190Y-99917142D01*
X140240285Y-99879047D01*
X140316476Y-99840952D01*
X140468857Y-99802857D01*
X140545047Y-99764761D01*
X140583142Y-99726666D01*
X140621238Y-99650476D01*
X140621238Y-99574285D01*
X140583142Y-99498095D01*
X140545047Y-99460000D01*
X140468857Y-99421904D01*
X140278380Y-99421904D01*
X140164095Y-99460000D01*
X139897428Y-99421904D02*
X139706952Y-100221904D01*
X139554571Y-99650476D01*
X139402190Y-100221904D01*
X139211714Y-99421904D01*
X138906952Y-100221904D02*
X138906952Y-99421904D01*
X138716476Y-99421904D01*
X138602190Y-99460000D01*
X138526000Y-99536190D01*
X138487904Y-99612380D01*
X138449809Y-99764761D01*
X138449809Y-99879047D01*
X138487904Y-100031428D01*
X138526000Y-100107619D01*
X138602190Y-100183809D01*
X138716476Y-100221904D01*
X138906952Y-100221904D01*
X138106952Y-100221904D02*
X138106952Y-99421904D01*
X137573619Y-99421904D02*
X137421238Y-99421904D01*
X137345047Y-99460000D01*
X137268857Y-99536190D01*
X137230761Y-99688571D01*
X137230761Y-99955238D01*
X137268857Y-100107619D01*
X137345047Y-100183809D01*
X137421238Y-100221904D01*
X137573619Y-100221904D01*
X137649809Y-100183809D01*
X137726000Y-100107619D01*
X137764095Y-99955238D01*
X137764095Y-99688571D01*
X137726000Y-99536190D01*
X137649809Y-99460000D01*
X137573619Y-99421904D01*
X156539096Y-72238781D02*
X156458284Y-72211844D01*
X156377471Y-72131032D01*
X156323597Y-72023282D01*
X156323597Y-71915532D01*
X156350534Y-71834720D01*
X156431346Y-71700033D01*
X156512158Y-71619221D01*
X156646845Y-71538409D01*
X156727658Y-71511471D01*
X156835407Y-71511471D01*
X156943157Y-71565346D01*
X156997032Y-71619221D01*
X157050906Y-71726971D01*
X157050906Y-71780845D01*
X156862345Y-71969407D01*
X156754595Y-71861658D01*
X157347218Y-71969407D02*
X156781532Y-72535093D01*
X156997032Y-72750592D01*
X157077844Y-72777529D01*
X157131719Y-72777529D01*
X157212531Y-72750592D01*
X157293343Y-72669780D01*
X157320280Y-72588967D01*
X157320280Y-72535093D01*
X157293343Y-72454280D01*
X157077844Y-72238781D01*
X157293343Y-73046903D02*
X157670467Y-73424027D01*
X157993715Y-72615905D01*
X131364375Y-74256564D02*
X130906439Y-74337377D01*
X131041126Y-73933316D02*
X130475441Y-74499001D01*
X130690940Y-74714500D01*
X130771752Y-74741438D01*
X130825627Y-74741438D01*
X130906439Y-74714500D01*
X130987251Y-74633688D01*
X131014189Y-74552876D01*
X131014189Y-74499001D01*
X130987251Y-74418189D01*
X130771752Y-74202690D01*
X131041126Y-75064687D02*
X131499062Y-74606751D01*
X131579874Y-74579813D01*
X131633749Y-74579813D01*
X131714561Y-74606751D01*
X131822311Y-74714500D01*
X131849248Y-74795312D01*
X131849248Y-74849187D01*
X131822311Y-74930000D01*
X131364375Y-75387935D01*
X132199435Y-75091624D02*
X131633749Y-75657309D01*
X132522683Y-75414873D01*
X131956998Y-75980558D01*
X131012158Y-79861844D02*
X130931346Y-79834906D01*
X130850534Y-79754094D01*
X130796659Y-79646345D01*
X130796659Y-79538595D01*
X130823597Y-79457783D01*
X130904409Y-79323096D01*
X130985221Y-79242284D01*
X131119908Y-79161471D01*
X131200720Y-79134534D01*
X131308470Y-79134534D01*
X131416219Y-79188409D01*
X131470094Y-79242284D01*
X131523969Y-79350033D01*
X131523969Y-79403908D01*
X131335407Y-79592470D01*
X131227658Y-79484720D01*
X131820280Y-79592470D02*
X131254595Y-80158155D01*
X132143529Y-79915719D01*
X131577844Y-80481404D01*
X132412903Y-80185093D02*
X131847218Y-80750778D01*
X131981905Y-80885465D01*
X132089654Y-80939340D01*
X132197404Y-80939340D01*
X132278216Y-80912402D01*
X132412903Y-80831590D01*
X132493715Y-80750778D01*
X132574528Y-80616091D01*
X132601465Y-80535279D01*
X132601465Y-80427529D01*
X132547590Y-80319780D01*
X132412903Y-80185093D01*
X156769722Y-84699407D02*
X156688910Y-84672470D01*
X156608097Y-84591658D01*
X156554223Y-84483908D01*
X156554223Y-84376158D01*
X156581160Y-84295346D01*
X156661972Y-84160659D01*
X156742784Y-84079847D01*
X156877471Y-83999035D01*
X156958284Y-83972097D01*
X157066033Y-83972097D01*
X157173783Y-84025972D01*
X157227658Y-84079847D01*
X157281532Y-84187597D01*
X157281532Y-84241471D01*
X157092971Y-84430033D01*
X156985221Y-84322284D01*
X157577844Y-84430033D02*
X157012158Y-84995719D01*
X157227658Y-85211218D01*
X157308470Y-85238155D01*
X157362345Y-85238155D01*
X157443157Y-85211218D01*
X157523969Y-85130406D01*
X157550906Y-85049593D01*
X157550906Y-84995719D01*
X157523969Y-84914906D01*
X157308470Y-84699407D01*
X158439841Y-85292030D02*
X158116592Y-84968781D01*
X158278216Y-85130406D02*
X157712531Y-85696091D01*
X157739468Y-85561404D01*
X157739468Y-85453654D01*
X157712531Y-85372842D01*
X158978589Y-85830778D02*
X158655340Y-85507529D01*
X158816964Y-85669154D02*
X158251279Y-86234839D01*
X158278216Y-86100152D01*
X158278216Y-85992402D01*
X158251279Y-85911590D01*
X156639096Y-74808781D02*
X156558284Y-74781844D01*
X156477471Y-74701032D01*
X156423597Y-74593282D01*
X156423597Y-74485532D01*
X156450534Y-74404720D01*
X156531346Y-74270033D01*
X156612158Y-74189221D01*
X156746845Y-74108409D01*
X156827658Y-74081471D01*
X156935407Y-74081471D01*
X157043157Y-74135346D01*
X157097032Y-74189221D01*
X157150906Y-74296971D01*
X157150906Y-74350845D01*
X156962345Y-74539407D01*
X156854595Y-74431658D01*
X157447218Y-74539407D02*
X156881532Y-75105093D01*
X157097032Y-75320592D01*
X157177844Y-75347529D01*
X157231719Y-75347529D01*
X157312531Y-75320592D01*
X157393343Y-75239780D01*
X157420280Y-75158967D01*
X157420280Y-75105093D01*
X157393343Y-75024280D01*
X157177844Y-74808781D01*
X157770467Y-75509154D02*
X157689654Y-75482216D01*
X157635780Y-75482216D01*
X157554967Y-75509154D01*
X157528030Y-75536091D01*
X157501093Y-75616903D01*
X157501093Y-75670778D01*
X157528030Y-75751590D01*
X157635780Y-75859340D01*
X157716592Y-75886277D01*
X157770467Y-75886277D01*
X157851279Y-75859340D01*
X157878216Y-75832402D01*
X157905154Y-75751590D01*
X157905154Y-75697715D01*
X157878216Y-75616903D01*
X157770467Y-75509154D01*
X157743529Y-75428341D01*
X157743529Y-75374467D01*
X157770467Y-75293654D01*
X157878216Y-75185905D01*
X157959028Y-75158967D01*
X158012903Y-75158967D01*
X158093715Y-75185905D01*
X158201465Y-75293654D01*
X158228402Y-75374467D01*
X158228402Y-75428341D01*
X158201465Y-75509154D01*
X158093715Y-75616903D01*
X158012903Y-75643841D01*
X157959028Y-75643841D01*
X157878216Y-75616903D01*
X129048131Y-55301691D02*
X129398317Y-55651877D01*
X129425255Y-55247816D01*
X129506067Y-55328629D01*
X129586879Y-55355566D01*
X129640754Y-55355566D01*
X129721566Y-55328629D01*
X129856253Y-55193942D01*
X129883190Y-55113129D01*
X129883190Y-55059255D01*
X129856253Y-54978442D01*
X129694629Y-54816818D01*
X129613816Y-54789881D01*
X129559942Y-54789881D01*
X129559942Y-55813502D02*
X130314189Y-55436378D01*
X129937065Y-56190625D01*
X130071752Y-56325312D02*
X130421938Y-56675499D01*
X130448876Y-56271438D01*
X130529688Y-56352250D01*
X130610500Y-56379187D01*
X130664375Y-56379187D01*
X130745187Y-56352250D01*
X130879874Y-56217563D01*
X130906812Y-56136751D01*
X130906812Y-56082876D01*
X130879874Y-56002064D01*
X130718250Y-55840439D01*
X130637438Y-55813502D01*
X130583563Y-55813502D01*
X131149248Y-56163688D02*
X131580247Y-56594687D01*
X131364748Y-57079560D02*
X131553309Y-57268122D01*
X131930433Y-57052622D02*
X131661059Y-56783248D01*
X131095374Y-57348934D01*
X131364748Y-57618308D01*
X132172870Y-57295059D02*
X131607184Y-57860744D01*
X132496118Y-57618308D01*
X131930433Y-58183993D01*
X156623722Y-97399407D02*
X156542910Y-97372470D01*
X156462097Y-97291658D01*
X156408223Y-97183908D01*
X156408223Y-97076158D01*
X156435160Y-96995346D01*
X156515972Y-96860659D01*
X156596784Y-96779847D01*
X156731471Y-96699035D01*
X156812284Y-96672097D01*
X156920033Y-96672097D01*
X157027783Y-96725972D01*
X157081658Y-96779847D01*
X157135532Y-96887597D01*
X157135532Y-96941471D01*
X156946971Y-97130033D01*
X156839221Y-97022284D01*
X157431844Y-97130033D02*
X156866158Y-97695719D01*
X157081658Y-97911218D01*
X157162470Y-97938155D01*
X157216345Y-97938155D01*
X157297157Y-97911218D01*
X157377969Y-97830406D01*
X157404906Y-97749593D01*
X157404906Y-97695719D01*
X157377969Y-97614906D01*
X157162470Y-97399407D01*
X158293841Y-97992030D02*
X157970592Y-97668781D01*
X158132216Y-97830406D02*
X157566531Y-98396091D01*
X157593468Y-98261404D01*
X157593468Y-98153654D01*
X157566531Y-98072842D01*
X158239966Y-99069526D02*
X157970592Y-98800152D01*
X158213028Y-98503841D01*
X158213028Y-98557715D01*
X158239966Y-98638528D01*
X158374653Y-98773215D01*
X158455465Y-98800152D01*
X158509340Y-98800152D01*
X158590152Y-98773215D01*
X158724839Y-98638528D01*
X158751776Y-98557715D01*
X158751776Y-98503841D01*
X158724839Y-98423028D01*
X158590152Y-98288341D01*
X158509340Y-98261404D01*
X158455465Y-98261404D01*
X130515722Y-97399407D02*
X130434910Y-97372470D01*
X130354097Y-97291658D01*
X130300223Y-97183908D01*
X130300223Y-97076158D01*
X130327160Y-96995346D01*
X130407972Y-96860659D01*
X130488784Y-96779847D01*
X130623471Y-96699035D01*
X130704284Y-96672097D01*
X130812033Y-96672097D01*
X130919783Y-96725972D01*
X130973658Y-96779847D01*
X131027532Y-96887597D01*
X131027532Y-96941471D01*
X130838971Y-97130033D01*
X130731221Y-97022284D01*
X131323844Y-97130033D02*
X130758158Y-97695719D01*
X130973658Y-97911218D01*
X131054470Y-97938155D01*
X131108345Y-97938155D01*
X131189157Y-97911218D01*
X131269969Y-97830406D01*
X131296906Y-97749593D01*
X131296906Y-97695719D01*
X131269969Y-97614906D01*
X131054470Y-97399407D01*
X132185841Y-97992030D02*
X131862592Y-97668781D01*
X132024216Y-97830406D02*
X131458531Y-98396091D01*
X131485468Y-98261404D01*
X131485468Y-98153654D01*
X131458531Y-98072842D01*
X132105028Y-99042589D02*
X131997279Y-98934839D01*
X131970341Y-98854027D01*
X131970341Y-98800152D01*
X131997279Y-98665465D01*
X132078091Y-98530778D01*
X132293590Y-98315279D01*
X132374402Y-98288341D01*
X132428277Y-98288341D01*
X132509089Y-98315279D01*
X132616839Y-98423028D01*
X132643776Y-98503841D01*
X132643776Y-98557715D01*
X132616839Y-98638528D01*
X132482152Y-98773215D01*
X132401340Y-98800152D01*
X132347465Y-98800152D01*
X132266653Y-98773215D01*
X132158903Y-98665465D01*
X132131966Y-98584653D01*
X132131966Y-98530778D01*
X132158903Y-98449966D01*
X156739096Y-51938781D02*
X156658284Y-51911844D01*
X156577471Y-51831032D01*
X156523597Y-51723282D01*
X156523597Y-51615532D01*
X156550534Y-51534720D01*
X156631346Y-51400033D01*
X156712158Y-51319221D01*
X156846845Y-51238409D01*
X156927658Y-51211471D01*
X157035407Y-51211471D01*
X157143157Y-51265346D01*
X157197032Y-51319221D01*
X157250906Y-51426971D01*
X157250906Y-51480845D01*
X157062345Y-51669407D01*
X156954595Y-51561658D01*
X157547218Y-51669407D02*
X156981532Y-52235093D01*
X157197032Y-52450592D01*
X157277844Y-52477529D01*
X157331719Y-52477529D01*
X157412531Y-52450592D01*
X157493343Y-52369780D01*
X157520280Y-52288967D01*
X157520280Y-52235093D01*
X157493343Y-52154280D01*
X157277844Y-51938781D01*
X158409215Y-52531404D02*
X158085966Y-52208155D01*
X158247590Y-52369780D02*
X157681905Y-52935465D01*
X157708842Y-52800778D01*
X157708842Y-52693028D01*
X157681905Y-52612216D01*
X129879129Y-48732690D02*
X130633377Y-48355566D01*
X130256253Y-49109813D01*
X130902751Y-49217563D02*
X131010500Y-49271438D01*
X131064375Y-49271438D01*
X131145187Y-49244500D01*
X131226000Y-49163688D01*
X131252937Y-49082876D01*
X131252937Y-49029001D01*
X131226000Y-48948189D01*
X131010500Y-48732690D01*
X130444815Y-49298375D01*
X130633377Y-49486937D01*
X130714189Y-49513874D01*
X130768064Y-49513874D01*
X130848876Y-49486937D01*
X130902751Y-49433062D01*
X130929688Y-49352250D01*
X130929688Y-49298375D01*
X130902751Y-49217563D01*
X130714189Y-49029001D01*
X131010500Y-49864061D02*
X131468436Y-49406125D01*
X131549248Y-49379187D01*
X131603123Y-49379187D01*
X131683935Y-49406125D01*
X131791685Y-49513874D01*
X131818622Y-49594687D01*
X131818622Y-49648561D01*
X131791685Y-49729374D01*
X131333749Y-50187309D01*
X132114934Y-49890998D02*
X132222683Y-49944873D01*
X132357370Y-50079560D01*
X132384308Y-50160372D01*
X132384308Y-50214247D01*
X132357370Y-50295059D01*
X132303496Y-50348934D01*
X132222683Y-50375871D01*
X132168809Y-50375871D01*
X132087996Y-50348934D01*
X131953309Y-50268122D01*
X131872497Y-50241184D01*
X131818622Y-50241184D01*
X131737810Y-50268122D01*
X131683935Y-50321996D01*
X131656998Y-50402809D01*
X131656998Y-50456683D01*
X131683935Y-50537496D01*
X131818622Y-50672183D01*
X131926372Y-50726057D01*
X130515722Y-77079407D02*
X130434910Y-77052470D01*
X130354097Y-76971658D01*
X130300223Y-76863908D01*
X130300223Y-76756158D01*
X130327160Y-76675346D01*
X130407972Y-76540659D01*
X130488784Y-76459847D01*
X130623471Y-76379035D01*
X130704284Y-76352097D01*
X130812033Y-76352097D01*
X130919783Y-76405972D01*
X130973658Y-76459847D01*
X131027532Y-76567597D01*
X131027532Y-76621471D01*
X130838971Y-76810033D01*
X130731221Y-76702284D01*
X131323844Y-76810033D02*
X130758158Y-77375719D01*
X130973658Y-77591218D01*
X131054470Y-77618155D01*
X131108345Y-77618155D01*
X131189157Y-77591218D01*
X131269969Y-77510406D01*
X131296906Y-77429593D01*
X131296906Y-77375719D01*
X131269969Y-77294906D01*
X131054470Y-77079407D01*
X131350781Y-77860592D02*
X131350781Y-77914467D01*
X131377719Y-77995279D01*
X131512406Y-78129966D01*
X131593218Y-78156903D01*
X131647093Y-78156903D01*
X131727905Y-78129966D01*
X131781780Y-78076091D01*
X131835654Y-77968341D01*
X131835654Y-77321844D01*
X132185841Y-77672030D01*
X131889529Y-78399340D02*
X131889529Y-78453215D01*
X131916467Y-78534027D01*
X132051154Y-78668714D01*
X132131966Y-78695651D01*
X132185841Y-78695651D01*
X132266653Y-78668714D01*
X132320528Y-78614839D01*
X132374402Y-78507089D01*
X132374402Y-77860592D01*
X132724589Y-78210778D01*
X156639096Y-62108781D02*
X156558284Y-62081844D01*
X156477471Y-62001032D01*
X156423597Y-61893282D01*
X156423597Y-61785532D01*
X156450534Y-61704720D01*
X156531346Y-61570033D01*
X156612158Y-61489221D01*
X156746845Y-61408409D01*
X156827658Y-61381471D01*
X156935407Y-61381471D01*
X157043157Y-61435346D01*
X157097032Y-61489221D01*
X157150906Y-61596971D01*
X157150906Y-61650845D01*
X156962345Y-61839407D01*
X156854595Y-61731658D01*
X157447218Y-61839407D02*
X156881532Y-62405093D01*
X157097032Y-62620592D01*
X157177844Y-62647529D01*
X157231719Y-62647529D01*
X157312531Y-62620592D01*
X157393343Y-62539780D01*
X157420280Y-62458967D01*
X157420280Y-62405093D01*
X157393343Y-62324280D01*
X157177844Y-62108781D01*
X157878216Y-63024653D02*
X158255340Y-62647529D01*
X157528030Y-63105465D02*
X157797404Y-62566717D01*
X158147590Y-62916903D01*
X156623722Y-89779407D02*
X156542910Y-89752470D01*
X156462097Y-89671658D01*
X156408223Y-89563908D01*
X156408223Y-89456158D01*
X156435160Y-89375346D01*
X156515972Y-89240659D01*
X156596784Y-89159847D01*
X156731471Y-89079035D01*
X156812284Y-89052097D01*
X156920033Y-89052097D01*
X157027783Y-89105972D01*
X157081658Y-89159847D01*
X157135532Y-89267597D01*
X157135532Y-89321471D01*
X156946971Y-89510033D01*
X156839221Y-89402284D01*
X157431844Y-89510033D02*
X156866158Y-90075719D01*
X157081658Y-90291218D01*
X157162470Y-90318155D01*
X157216345Y-90318155D01*
X157297157Y-90291218D01*
X157377969Y-90210406D01*
X157404906Y-90129593D01*
X157404906Y-90075719D01*
X157377969Y-89994906D01*
X157162470Y-89779407D01*
X158293841Y-90372030D02*
X157970592Y-90048781D01*
X158132216Y-90210406D02*
X157566531Y-90776091D01*
X157593468Y-90641404D01*
X157593468Y-90533654D01*
X157566531Y-90452842D01*
X157916717Y-91126277D02*
X158266903Y-91476463D01*
X158293841Y-91072402D01*
X158374653Y-91153215D01*
X158455465Y-91180152D01*
X158509340Y-91180152D01*
X158590152Y-91153215D01*
X158724839Y-91018528D01*
X158751776Y-90937715D01*
X158751776Y-90883841D01*
X158724839Y-90803028D01*
X158563215Y-90641404D01*
X158482402Y-90614467D01*
X158428528Y-90614467D01*
X156669722Y-94859407D02*
X156588910Y-94832470D01*
X156508097Y-94751658D01*
X156454223Y-94643908D01*
X156454223Y-94536158D01*
X156481160Y-94455346D01*
X156561972Y-94320659D01*
X156642784Y-94239847D01*
X156777471Y-94159035D01*
X156858284Y-94132097D01*
X156966033Y-94132097D01*
X157073783Y-94185972D01*
X157127658Y-94239847D01*
X157181532Y-94347597D01*
X157181532Y-94401471D01*
X156992971Y-94590033D01*
X156885221Y-94482284D01*
X157477844Y-94590033D02*
X156912158Y-95155719D01*
X157127658Y-95371218D01*
X157208470Y-95398155D01*
X157262345Y-95398155D01*
X157343157Y-95371218D01*
X157423969Y-95290406D01*
X157450906Y-95209593D01*
X157450906Y-95155719D01*
X157423969Y-95074906D01*
X157208470Y-94859407D01*
X158339841Y-95452030D02*
X158016592Y-95128781D01*
X158178216Y-95290406D02*
X157612531Y-95856091D01*
X157639468Y-95721404D01*
X157639468Y-95613654D01*
X157612531Y-95532842D01*
X158447590Y-96314027D02*
X158824714Y-95936903D01*
X158097404Y-96394839D02*
X158366778Y-95856091D01*
X158716964Y-96206277D01*
X130515722Y-84699407D02*
X130434910Y-84672470D01*
X130354097Y-84591658D01*
X130300223Y-84483908D01*
X130300223Y-84376158D01*
X130327160Y-84295346D01*
X130407972Y-84160659D01*
X130488784Y-84079847D01*
X130623471Y-83999035D01*
X130704284Y-83972097D01*
X130812033Y-83972097D01*
X130919783Y-84025972D01*
X130973658Y-84079847D01*
X131027532Y-84187597D01*
X131027532Y-84241471D01*
X130838971Y-84430033D01*
X130731221Y-84322284D01*
X131323844Y-84430033D02*
X130758158Y-84995719D01*
X130973658Y-85211218D01*
X131054470Y-85238155D01*
X131108345Y-85238155D01*
X131189157Y-85211218D01*
X131269969Y-85130406D01*
X131296906Y-85049593D01*
X131296906Y-84995719D01*
X131269969Y-84914906D01*
X131054470Y-84699407D01*
X131350781Y-85480592D02*
X131350781Y-85534467D01*
X131377719Y-85615279D01*
X131512406Y-85749966D01*
X131593218Y-85776903D01*
X131647093Y-85776903D01*
X131727905Y-85749966D01*
X131781780Y-85696091D01*
X131835654Y-85588341D01*
X131835654Y-84941844D01*
X132185841Y-85292030D01*
X131970341Y-86207902D02*
X132024216Y-86261776D01*
X132105028Y-86288714D01*
X132158903Y-86288714D01*
X132239715Y-86261776D01*
X132374402Y-86180964D01*
X132509089Y-86046277D01*
X132589902Y-85911590D01*
X132616839Y-85830778D01*
X132616839Y-85776903D01*
X132589902Y-85696091D01*
X132536027Y-85642216D01*
X132455215Y-85615279D01*
X132401340Y-85615279D01*
X132320528Y-85642216D01*
X132185841Y-85723028D01*
X132051154Y-85857715D01*
X131970341Y-85992402D01*
X131943404Y-86073215D01*
X131943404Y-86127089D01*
X131970341Y-86207902D01*
X131012158Y-92561844D02*
X130931346Y-92534906D01*
X130850534Y-92454094D01*
X130796659Y-92346345D01*
X130796659Y-92238595D01*
X130823597Y-92157783D01*
X130904409Y-92023096D01*
X130985221Y-91942284D01*
X131119908Y-91861471D01*
X131200720Y-91834534D01*
X131308470Y-91834534D01*
X131416219Y-91888409D01*
X131470094Y-91942284D01*
X131523969Y-92050033D01*
X131523969Y-92103908D01*
X131335407Y-92292470D01*
X131227658Y-92184720D01*
X131820280Y-92292470D02*
X131254595Y-92858155D01*
X132143529Y-92615719D01*
X131577844Y-93181404D01*
X132412903Y-92885093D02*
X131847218Y-93450778D01*
X131981905Y-93585465D01*
X132089654Y-93639340D01*
X132197404Y-93639340D01*
X132278216Y-93612402D01*
X132412903Y-93531590D01*
X132493715Y-93450778D01*
X132574528Y-93316091D01*
X132601465Y-93235279D01*
X132601465Y-93127529D01*
X132547590Y-93019780D01*
X132412903Y-92885093D01*
X130515722Y-69469407D02*
X130434910Y-69442470D01*
X130354097Y-69361658D01*
X130300223Y-69253908D01*
X130300223Y-69146158D01*
X130327160Y-69065346D01*
X130407972Y-68930659D01*
X130488784Y-68849847D01*
X130623471Y-68769035D01*
X130704284Y-68742097D01*
X130812033Y-68742097D01*
X130919783Y-68795972D01*
X130973658Y-68849847D01*
X131027532Y-68957597D01*
X131027532Y-69011471D01*
X130838971Y-69200033D01*
X130731221Y-69092284D01*
X131323844Y-69200033D02*
X130758158Y-69765719D01*
X130973658Y-69981218D01*
X131054470Y-70008155D01*
X131108345Y-70008155D01*
X131189157Y-69981218D01*
X131269969Y-69900406D01*
X131296906Y-69819593D01*
X131296906Y-69765719D01*
X131269969Y-69684906D01*
X131054470Y-69469407D01*
X131350781Y-70250592D02*
X131350781Y-70304467D01*
X131377719Y-70385279D01*
X131512406Y-70519966D01*
X131593218Y-70546903D01*
X131647093Y-70546903D01*
X131727905Y-70519966D01*
X131781780Y-70466091D01*
X131835654Y-70358341D01*
X131835654Y-69711844D01*
X132185841Y-70062030D01*
X131808717Y-70816277D02*
X132185841Y-71193401D01*
X132509089Y-70385279D01*
X130515722Y-71999407D02*
X130434910Y-71972470D01*
X130354097Y-71891658D01*
X130300223Y-71783908D01*
X130300223Y-71676158D01*
X130327160Y-71595346D01*
X130407972Y-71460659D01*
X130488784Y-71379847D01*
X130623471Y-71299035D01*
X130704284Y-71272097D01*
X130812033Y-71272097D01*
X130919783Y-71325972D01*
X130973658Y-71379847D01*
X131027532Y-71487597D01*
X131027532Y-71541471D01*
X130838971Y-71730033D01*
X130731221Y-71622284D01*
X131323844Y-71730033D02*
X130758158Y-72295719D01*
X130973658Y-72511218D01*
X131054470Y-72538155D01*
X131108345Y-72538155D01*
X131189157Y-72511218D01*
X131269969Y-72430406D01*
X131296906Y-72349593D01*
X131296906Y-72295719D01*
X131269969Y-72214906D01*
X131054470Y-71999407D01*
X131350781Y-72780592D02*
X131350781Y-72834467D01*
X131377719Y-72915279D01*
X131512406Y-73049966D01*
X131593218Y-73076903D01*
X131647093Y-73076903D01*
X131727905Y-73049966D01*
X131781780Y-72996091D01*
X131835654Y-72888341D01*
X131835654Y-72241844D01*
X132185841Y-72592030D01*
X132105028Y-73642589D02*
X131997279Y-73534839D01*
X131970341Y-73454027D01*
X131970341Y-73400152D01*
X131997279Y-73265465D01*
X132078091Y-73130778D01*
X132293590Y-72915279D01*
X132374402Y-72888341D01*
X132428277Y-72888341D01*
X132509089Y-72915279D01*
X132616839Y-73023028D01*
X132643776Y-73103841D01*
X132643776Y-73157715D01*
X132616839Y-73238528D01*
X132482152Y-73373215D01*
X132401340Y-73400152D01*
X132347465Y-73400152D01*
X132266653Y-73373215D01*
X132158903Y-73265465D01*
X132131966Y-73184653D01*
X132131966Y-73130778D01*
X132158903Y-73049966D01*
X156639096Y-77348781D02*
X156558284Y-77321844D01*
X156477471Y-77241032D01*
X156423597Y-77133282D01*
X156423597Y-77025532D01*
X156450534Y-76944720D01*
X156531346Y-76810033D01*
X156612158Y-76729221D01*
X156746845Y-76648409D01*
X156827658Y-76621471D01*
X156935407Y-76621471D01*
X157043157Y-76675346D01*
X157097032Y-76729221D01*
X157150906Y-76836971D01*
X157150906Y-76890845D01*
X156962345Y-77079407D01*
X156854595Y-76971658D01*
X157447218Y-77079407D02*
X156881532Y-77645093D01*
X157097032Y-77860592D01*
X157177844Y-77887529D01*
X157231719Y-77887529D01*
X157312531Y-77860592D01*
X157393343Y-77779780D01*
X157420280Y-77698967D01*
X157420280Y-77645093D01*
X157393343Y-77564280D01*
X157177844Y-77348781D01*
X158039841Y-77672030D02*
X158147590Y-77779780D01*
X158174528Y-77860592D01*
X158174528Y-77914467D01*
X158147590Y-78049154D01*
X158066778Y-78183841D01*
X157851279Y-78399340D01*
X157770467Y-78426277D01*
X157716592Y-78426277D01*
X157635780Y-78399340D01*
X157528030Y-78291590D01*
X157501093Y-78210778D01*
X157501093Y-78156903D01*
X157528030Y-78076091D01*
X157662717Y-77941404D01*
X157743529Y-77914467D01*
X157797404Y-77914467D01*
X157878216Y-77941404D01*
X157985966Y-78049154D01*
X158012903Y-78129966D01*
X158012903Y-78183841D01*
X157985966Y-78264653D01*
X130515722Y-89779407D02*
X130434910Y-89752470D01*
X130354097Y-89671658D01*
X130300223Y-89563908D01*
X130300223Y-89456158D01*
X130327160Y-89375346D01*
X130407972Y-89240659D01*
X130488784Y-89159847D01*
X130623471Y-89079035D01*
X130704284Y-89052097D01*
X130812033Y-89052097D01*
X130919783Y-89105972D01*
X130973658Y-89159847D01*
X131027532Y-89267597D01*
X131027532Y-89321471D01*
X130838971Y-89510033D01*
X130731221Y-89402284D01*
X131323844Y-89510033D02*
X130758158Y-90075719D01*
X130973658Y-90291218D01*
X131054470Y-90318155D01*
X131108345Y-90318155D01*
X131189157Y-90291218D01*
X131269969Y-90210406D01*
X131296906Y-90129593D01*
X131296906Y-90075719D01*
X131269969Y-89994906D01*
X131054470Y-89779407D01*
X132185841Y-90372030D02*
X131862592Y-90048781D01*
X132024216Y-90210406D02*
X131458531Y-90776091D01*
X131485468Y-90641404D01*
X131485468Y-90533654D01*
X131458531Y-90452842D01*
X132185841Y-91018528D02*
X132105028Y-90991590D01*
X132051154Y-90991590D01*
X131970341Y-91018528D01*
X131943404Y-91045465D01*
X131916467Y-91126277D01*
X131916467Y-91180152D01*
X131943404Y-91260964D01*
X132051154Y-91368714D01*
X132131966Y-91395651D01*
X132185841Y-91395651D01*
X132266653Y-91368714D01*
X132293590Y-91341776D01*
X132320528Y-91260964D01*
X132320528Y-91207089D01*
X132293590Y-91126277D01*
X132185841Y-91018528D01*
X132158903Y-90937715D01*
X132158903Y-90883841D01*
X132185841Y-90803028D01*
X132293590Y-90695279D01*
X132374402Y-90668341D01*
X132428277Y-90668341D01*
X132509089Y-90695279D01*
X132616839Y-90803028D01*
X132643776Y-90883841D01*
X132643776Y-90937715D01*
X132616839Y-91018528D01*
X132509089Y-91126277D01*
X132428277Y-91153215D01*
X132374402Y-91153215D01*
X132293590Y-91126277D01*
X130515722Y-64125407D02*
X130434910Y-64098470D01*
X130354097Y-64017658D01*
X130300223Y-63909908D01*
X130300223Y-63802158D01*
X130327160Y-63721346D01*
X130407972Y-63586659D01*
X130488784Y-63505847D01*
X130623471Y-63425035D01*
X130704284Y-63398097D01*
X130812033Y-63398097D01*
X130919783Y-63451972D01*
X130973658Y-63505847D01*
X131027532Y-63613597D01*
X131027532Y-63667471D01*
X130838971Y-63856033D01*
X130731221Y-63748284D01*
X131323844Y-63856033D02*
X130758158Y-64421719D01*
X130973658Y-64637218D01*
X131054470Y-64664155D01*
X131108345Y-64664155D01*
X131189157Y-64637218D01*
X131269969Y-64556406D01*
X131296906Y-64475593D01*
X131296906Y-64421719D01*
X131269969Y-64340906D01*
X131054470Y-64125407D01*
X131350781Y-64906592D02*
X131350781Y-64960467D01*
X131377719Y-65041279D01*
X131512406Y-65175966D01*
X131593218Y-65202903D01*
X131647093Y-65202903D01*
X131727905Y-65175966D01*
X131781780Y-65122091D01*
X131835654Y-65014341D01*
X131835654Y-64367844D01*
X132185841Y-64718030D01*
X132185841Y-65364528D02*
X132105028Y-65337590D01*
X132051154Y-65337590D01*
X131970341Y-65364528D01*
X131943404Y-65391465D01*
X131916467Y-65472277D01*
X131916467Y-65526152D01*
X131943404Y-65606964D01*
X132051154Y-65714714D01*
X132131966Y-65741651D01*
X132185841Y-65741651D01*
X132266653Y-65714714D01*
X132293590Y-65687776D01*
X132320528Y-65606964D01*
X132320528Y-65553089D01*
X132293590Y-65472277D01*
X132185841Y-65364528D01*
X132158903Y-65283715D01*
X132158903Y-65229841D01*
X132185841Y-65149028D01*
X132293590Y-65041279D01*
X132374402Y-65014341D01*
X132428277Y-65014341D01*
X132509089Y-65041279D01*
X132616839Y-65149028D01*
X132643776Y-65229841D01*
X132643776Y-65283715D01*
X132616839Y-65364528D01*
X132509089Y-65472277D01*
X132428277Y-65499215D01*
X132374402Y-65499215D01*
X132293590Y-65472277D01*
X130569597Y-66219035D02*
X130838971Y-66488409D01*
X130677346Y-66003536D02*
X130300223Y-66757783D01*
X131054470Y-66380659D01*
X131000595Y-67404280D02*
X130919783Y-67377343D01*
X130838971Y-67296531D01*
X130785096Y-67188781D01*
X130785096Y-67081032D01*
X130812033Y-67000219D01*
X130892845Y-66865532D01*
X130973658Y-66784720D01*
X131108345Y-66703908D01*
X131189157Y-66676971D01*
X131296906Y-66676971D01*
X131404656Y-66730845D01*
X131458531Y-66784720D01*
X131512406Y-66892470D01*
X131512406Y-66946345D01*
X131323844Y-67134906D01*
X131216094Y-67027157D01*
X131808717Y-67134906D02*
X131243032Y-67700592D01*
X132131966Y-67458155D01*
X131566280Y-68023841D01*
X132401340Y-67727529D02*
X131835654Y-68293215D01*
X131970341Y-68427902D01*
X132078091Y-68481776D01*
X132185841Y-68481776D01*
X132266653Y-68454839D01*
X132401340Y-68374027D01*
X132482152Y-68293215D01*
X132562964Y-68158528D01*
X132589902Y-68077715D01*
X132589902Y-67969966D01*
X132536027Y-67862216D01*
X132401340Y-67727529D01*
X130515722Y-82169407D02*
X130434910Y-82142470D01*
X130354097Y-82061658D01*
X130300223Y-81953908D01*
X130300223Y-81846158D01*
X130327160Y-81765346D01*
X130407972Y-81630659D01*
X130488784Y-81549847D01*
X130623471Y-81469035D01*
X130704284Y-81442097D01*
X130812033Y-81442097D01*
X130919783Y-81495972D01*
X130973658Y-81549847D01*
X131027532Y-81657597D01*
X131027532Y-81711471D01*
X130838971Y-81900033D01*
X130731221Y-81792284D01*
X131323844Y-81900033D02*
X130758158Y-82465719D01*
X130973658Y-82681218D01*
X131054470Y-82708155D01*
X131108345Y-82708155D01*
X131189157Y-82681218D01*
X131269969Y-82600406D01*
X131296906Y-82519593D01*
X131296906Y-82465719D01*
X131269969Y-82384906D01*
X131054470Y-82169407D01*
X131350781Y-82950592D02*
X131350781Y-83004467D01*
X131377719Y-83085279D01*
X131512406Y-83219966D01*
X131593218Y-83246903D01*
X131647093Y-83246903D01*
X131727905Y-83219966D01*
X131781780Y-83166091D01*
X131835654Y-83058341D01*
X131835654Y-82411844D01*
X132185841Y-82762030D01*
X132724589Y-83300778D02*
X132401340Y-82977529D01*
X132562964Y-83139154D02*
X131997279Y-83704839D01*
X132024216Y-83570152D01*
X132024216Y-83462402D01*
X131997279Y-83381590D01*
X156612158Y-79861844D02*
X156531346Y-79834906D01*
X156450534Y-79754094D01*
X156396659Y-79646345D01*
X156396659Y-79538595D01*
X156423597Y-79457783D01*
X156504409Y-79323096D01*
X156585221Y-79242284D01*
X156719908Y-79161471D01*
X156800720Y-79134534D01*
X156908470Y-79134534D01*
X157016219Y-79188409D01*
X157070094Y-79242284D01*
X157123969Y-79350033D01*
X157123969Y-79403908D01*
X156935407Y-79592470D01*
X156827658Y-79484720D01*
X157420280Y-79592470D02*
X156854595Y-80158155D01*
X157743529Y-79915719D01*
X157177844Y-80481404D01*
X158012903Y-80185093D02*
X157447218Y-80750778D01*
X157581905Y-80885465D01*
X157689654Y-80939340D01*
X157797404Y-80939340D01*
X157878216Y-80912402D01*
X158012903Y-80831590D01*
X158093715Y-80750778D01*
X158174528Y-80616091D01*
X158201465Y-80535279D01*
X158201465Y-80427529D01*
X158147590Y-80319780D01*
X158012903Y-80185093D01*
X130615847Y-59369407D02*
X130966033Y-59719593D01*
X130992971Y-59315532D01*
X131073783Y-59396345D01*
X131154595Y-59423282D01*
X131208470Y-59423282D01*
X131289282Y-59396345D01*
X131423969Y-59261658D01*
X131450906Y-59180845D01*
X131450906Y-59126971D01*
X131423969Y-59046158D01*
X131262345Y-58884534D01*
X131181532Y-58857597D01*
X131127658Y-58857597D01*
X131127658Y-59881218D02*
X131881905Y-59504094D01*
X131504781Y-60258341D01*
X131639468Y-60393028D02*
X131989654Y-60743215D01*
X132016592Y-60339154D01*
X132097404Y-60419966D01*
X132178216Y-60446903D01*
X132232091Y-60446903D01*
X132312903Y-60419966D01*
X132447590Y-60285279D01*
X132474528Y-60204467D01*
X132474528Y-60150592D01*
X132447590Y-60069780D01*
X132285966Y-59908155D01*
X132205154Y-59881218D01*
X132151279Y-59881218D01*
X130515722Y-94859407D02*
X130434910Y-94832470D01*
X130354097Y-94751658D01*
X130300223Y-94643908D01*
X130300223Y-94536158D01*
X130327160Y-94455346D01*
X130407972Y-94320659D01*
X130488784Y-94239847D01*
X130623471Y-94159035D01*
X130704284Y-94132097D01*
X130812033Y-94132097D01*
X130919783Y-94185972D01*
X130973658Y-94239847D01*
X131027532Y-94347597D01*
X131027532Y-94401471D01*
X130838971Y-94590033D01*
X130731221Y-94482284D01*
X131323844Y-94590033D02*
X130758158Y-95155719D01*
X130973658Y-95371218D01*
X131054470Y-95398155D01*
X131108345Y-95398155D01*
X131189157Y-95371218D01*
X131269969Y-95290406D01*
X131296906Y-95209593D01*
X131296906Y-95155719D01*
X131269969Y-95074906D01*
X131054470Y-94859407D01*
X132185841Y-95452030D02*
X131862592Y-95128781D01*
X132024216Y-95290406D02*
X131458531Y-95856091D01*
X131485468Y-95721404D01*
X131485468Y-95613654D01*
X131458531Y-95532842D01*
X131808717Y-96206277D02*
X132185841Y-96583401D01*
X132509089Y-95775279D01*
X156612158Y-67161844D02*
X156531346Y-67134906D01*
X156450534Y-67054094D01*
X156396659Y-66946345D01*
X156396659Y-66838595D01*
X156423597Y-66757783D01*
X156504409Y-66623096D01*
X156585221Y-66542284D01*
X156719908Y-66461471D01*
X156800720Y-66434534D01*
X156908470Y-66434534D01*
X157016219Y-66488409D01*
X157070094Y-66542284D01*
X157123969Y-66650033D01*
X157123969Y-66703908D01*
X156935407Y-66892470D01*
X156827658Y-66784720D01*
X157420280Y-66892470D02*
X156854595Y-67458155D01*
X157743529Y-67215719D01*
X157177844Y-67781404D01*
X158012903Y-67485093D02*
X157447218Y-68050778D01*
X157581905Y-68185465D01*
X157689654Y-68239340D01*
X157797404Y-68239340D01*
X157878216Y-68212402D01*
X158012903Y-68131590D01*
X158093715Y-68050778D01*
X158174528Y-67916091D01*
X158201465Y-67835279D01*
X158201465Y-67727529D01*
X158147590Y-67619780D01*
X158012903Y-67485093D01*
X130046473Y-51410033D02*
X130800720Y-51032910D01*
X130423597Y-51787157D01*
X131123969Y-51410033D02*
X131231719Y-51463908D01*
X131366406Y-51598595D01*
X131393343Y-51679407D01*
X131393343Y-51733282D01*
X131366406Y-51814094D01*
X131312531Y-51867969D01*
X131231719Y-51894906D01*
X131177844Y-51894906D01*
X131097032Y-51867969D01*
X130962345Y-51787157D01*
X130881532Y-51760219D01*
X130827658Y-51760219D01*
X130746845Y-51787157D01*
X130692971Y-51841032D01*
X130666033Y-51921844D01*
X130666033Y-51975719D01*
X130692971Y-52056531D01*
X130827658Y-52191218D01*
X130935407Y-52245093D01*
X131554967Y-52325905D02*
X131824341Y-52056531D01*
X131070094Y-52433654D02*
X131554967Y-52325905D01*
X131447218Y-52810778D01*
X132147590Y-52433654D02*
X132255340Y-52487529D01*
X132390027Y-52622216D01*
X132416964Y-52703028D01*
X132416964Y-52756903D01*
X132390027Y-52837715D01*
X132336152Y-52891590D01*
X132255340Y-52918528D01*
X132201465Y-52918528D01*
X132120653Y-52891590D01*
X131985966Y-52810778D01*
X131905154Y-52783841D01*
X131851279Y-52783841D01*
X131770467Y-52810778D01*
X131716592Y-52864653D01*
X131689654Y-52945465D01*
X131689654Y-52999340D01*
X131716592Y-53080152D01*
X131851279Y-53214839D01*
X131959028Y-53268714D01*
X156639096Y-64648781D02*
X156558284Y-64621844D01*
X156477471Y-64541032D01*
X156423597Y-64433282D01*
X156423597Y-64325532D01*
X156450534Y-64244720D01*
X156531346Y-64110033D01*
X156612158Y-64029221D01*
X156746845Y-63948409D01*
X156827658Y-63921471D01*
X156935407Y-63921471D01*
X157043157Y-63975346D01*
X157097032Y-64029221D01*
X157150906Y-64136971D01*
X157150906Y-64190845D01*
X156962345Y-64379407D01*
X156854595Y-64271658D01*
X157447218Y-64379407D02*
X156881532Y-64945093D01*
X157097032Y-65160592D01*
X157177844Y-65187529D01*
X157231719Y-65187529D01*
X157312531Y-65160592D01*
X157393343Y-65079780D01*
X157420280Y-64998967D01*
X157420280Y-64945093D01*
X157393343Y-64864280D01*
X157177844Y-64648781D01*
X157716592Y-65780152D02*
X157447218Y-65510778D01*
X157689654Y-65214467D01*
X157689654Y-65268341D01*
X157716592Y-65349154D01*
X157851279Y-65483841D01*
X157932091Y-65510778D01*
X157985966Y-65510778D01*
X158066778Y-65483841D01*
X158201465Y-65349154D01*
X158228402Y-65268341D01*
X158228402Y-65214467D01*
X158201465Y-65133654D01*
X158066778Y-64998967D01*
X157985966Y-64972030D01*
X157932091Y-64972030D01*
D11*
X134026000Y-55660000D02*
X134026000Y-56060000D01*
X148226000Y-99160000D02*
X155026000Y-99160000D01*
X134026000Y-99160000D02*
X140826000Y-99160000D01*
X155026000Y-93760000D02*
X155026000Y-94160000D01*
X155026000Y-48160000D02*
X134026000Y-48160000D01*
X134026000Y-60760000D02*
X134026000Y-61160000D01*
X134026000Y-50560000D02*
X134026000Y-50960000D01*
X134026000Y-88760000D02*
X134026000Y-89160000D01*
X155026000Y-50827000D02*
X152019000Y-50827000D01*
X143426000Y-99160000D02*
X143026000Y-99160000D01*
X155026000Y-81060000D02*
X155026000Y-81460000D01*
X134026000Y-75960000D02*
X134026000Y-76360000D01*
X134026000Y-48160000D02*
X134026000Y-48460000D01*
X155026000Y-91260000D02*
X155026000Y-91660000D01*
X155026000Y-83660000D02*
X155026000Y-84060000D01*
X134026000Y-63260000D02*
X134026000Y-63660000D01*
X134026000Y-68360000D02*
X134026000Y-68760000D01*
X155026000Y-60760000D02*
X155026000Y-61160000D01*
X134026000Y-83660000D02*
X134026000Y-84060000D01*
X134026000Y-58260000D02*
X134026000Y-58660000D01*
X152019000Y-50827000D02*
X152019000Y-48160000D01*
X134026000Y-81060000D02*
X134026000Y-81460000D01*
X155026000Y-55660000D02*
X155026000Y-56060000D01*
X134026000Y-93760000D02*
X134026000Y-94160000D01*
X155026000Y-63260000D02*
X155026000Y-63660000D01*
X134026000Y-91260000D02*
X134026000Y-91660000D01*
X134026000Y-73460000D02*
X134026000Y-73860000D01*
X155026000Y-96360000D02*
X155026000Y-96760000D01*
X155026000Y-48160000D02*
X155026000Y-48460000D01*
X134026000Y-96360000D02*
X134026000Y-96760000D01*
X155026000Y-68360000D02*
X155026000Y-68760000D01*
X146026000Y-99160000D02*
X145626000Y-99160000D01*
X155026000Y-58260000D02*
X155026000Y-58660000D01*
X155026000Y-73460000D02*
X155026000Y-73860000D01*
X155026000Y-75960000D02*
X155026000Y-76360000D01*
X134026000Y-78560000D02*
X134026000Y-78960000D01*
X155026000Y-70960000D02*
X155026000Y-71360000D01*
X155026000Y-53160000D02*
X155026000Y-53560000D01*
X155026000Y-88760000D02*
X155026000Y-89160000D01*
X155026000Y-65860000D02*
X155026000Y-66260000D01*
X134026000Y-53160000D02*
X134026000Y-53560000D01*
X155026000Y-78560000D02*
X155026000Y-78960000D01*
X134026000Y-65860000D02*
X134026000Y-66260000D01*
X155026000Y-50560000D02*
X155026000Y-50960000D01*
X134026000Y-86160000D02*
X134026000Y-86560000D01*
X134026000Y-70960000D02*
X134026000Y-71360000D01*
X155026000Y-86160000D02*
X155026000Y-86560000D01*
%TD*%
M02*
