M48
; DRILL file {KiCad (6.0.4)} date Mon Jul  4 15:55:23 2022
; FORMAT={-:-/ absolute / metric / decimal}
; #@! TF.CreationDate,2022-07-04T15:55:23-04:00
; #@! TF.GenerationSoftware,Kicad,Pcbnew,(6.0.4)
; #@! TF.FileFunction,Plated,1,2,PTH
FMAT,2
METRIC
; #@! TA.AperFunction,Plated,PTH,ViaDrill
T1C0.400
; #@! TA.AperFunction,Plated,PTH,ComponentDrill
T2C1.020
; #@! TA.AperFunction,Plated,PTH,ComponentDrill
T3C1.500
%
G90
G05
T1
X129.794Y-98.806
X148.082Y-63.246
X150.114Y-69.4
X150.622Y-53.594
X151.642Y-70.362
X158.289Y-72.089
X162.861Y-76.661
X174.498Y-93.98
X214.948Y-85.141
T2
X135.636Y-49.53
X135.636Y-52.07
X135.636Y-54.61
X135.636Y-57.15
X135.636Y-59.69
X135.636Y-62.23
X135.636Y-64.77
X135.636Y-67.31
X135.636Y-69.85
X135.636Y-72.39
X135.636Y-74.93
X135.636Y-77.47
X135.636Y-80.01
X135.636Y-82.55
X135.636Y-85.09
X135.636Y-87.63
X135.636Y-90.17
X135.636Y-92.71
X135.636Y-95.25
X135.636Y-97.79
X141.986Y-97.56
X144.526Y-97.56
X147.066Y-97.56
X153.416Y-49.53
X153.416Y-52.07
X153.416Y-54.61
X153.416Y-57.15
X153.416Y-59.69
X153.416Y-62.23
X153.416Y-64.77
X153.416Y-67.31
X153.416Y-69.85
X153.416Y-72.39
X153.416Y-74.93
X153.416Y-77.47
X153.416Y-80.01
X153.416Y-82.55
X153.416Y-85.09
X153.416Y-87.63
X153.416Y-90.17
X153.416Y-92.71
X153.416Y-95.25
X153.416Y-97.79
T3
X76.537Y-112.156
X76.962Y-55.372
X83.312Y-52.832
X83.372Y-111.941
X94.438Y-118.672
X96.012Y-55.372
X100.953Y-100.771
X101.273Y-118.457
X102.362Y-52.832
X107.789Y-100.556
X112.339Y-125.187
X119.175Y-124.972
X150.368Y-134.874
X156.718Y-132.334
X171.881Y-106.301
X173.482Y-55.372
X175.189Y-125.062
X177.693Y-102.697
X179.832Y-52.832
X181.001Y-121.457
X189.423Y-96.081
X192.532Y-55.372
X192.731Y-114.842
X195.235Y-92.477
X198.543Y-111.238
X198.882Y-52.832
X207.345Y-88.02
X210.653Y-106.781
X211.582Y-55.372
X213.158Y-84.416
X216.466Y-103.177
X217.932Y-52.832
X226.591Y-87.464
X229.899Y-106.225
X230.632Y-55.372
X232.403Y-83.86
X235.711Y-102.621
X236.982Y-52.832
T0
M30
