%TF.GenerationSoftware,KiCad,Pcbnew,(6.0.4)*%
%TF.CreationDate,2022-07-04T15:55:19-04:00*%
%TF.ProjectId,cassowary,63617373-6f77-4617-9279-2e6b69636164,rev?*%
%TF.SameCoordinates,Original*%
%TF.FileFunction,Soldermask,Top*%
%TF.FilePolarity,Negative*%
%FSLAX46Y46*%
G04 Gerber Fmt 4.6, Leading zero omitted, Abs format (unit mm)*
G04 Created by KiCad (PCBNEW (6.0.4)) date 2022-07-04 15:55:19*
%MOMM*%
%LPD*%
G01*
G04 APERTURE LIST*
%ADD10C,4.000000*%
%ADD11C,1.750000*%
%ADD12O,1.800000X1.800000*%
%ADD13O,1.500000X1.500000*%
%ADD14O,1.700000X1.700000*%
%ADD15R,1.700000X1.700000*%
G04 APERTURE END LIST*
D10*
%TO.C,MX19*%
X154178000Y-137414000D03*
D11*
X149098000Y-137414000D03*
X159258000Y-137414000D03*
%TD*%
%TO.C,MX3*%
X210312000Y-57912000D03*
D10*
X215392000Y-57912000D03*
D11*
X220472000Y-57912000D03*
%TD*%
D10*
%TO.C,MX7*%
X103664628Y-104460428D03*
D11*
X108438267Y-106197890D03*
X98890989Y-102722966D03*
%TD*%
D10*
%TO.C,MX9*%
X97149144Y-122361572D03*
D11*
X92375505Y-120624110D03*
X101922783Y-124099034D03*
%TD*%
%TO.C,MX16*%
X191921066Y-117563683D03*
D10*
X196923889Y-116681550D03*
D11*
X201926712Y-115799417D03*
%TD*%
D10*
%TO.C,MX8*%
X79248000Y-115846088D03*
D11*
X74474361Y-114108626D03*
X84021639Y-117583550D03*
%TD*%
%TO.C,MX17*%
X219849273Y-107738737D03*
D10*
X214846450Y-108620870D03*
D11*
X209843627Y-109503003D03*
%TD*%
D10*
%TO.C,MX5*%
X177292000Y-57912000D03*
D11*
X172212000Y-57912000D03*
X182372000Y-57912000D03*
%TD*%
%TO.C,MX10*%
X110276650Y-127139594D03*
X119823928Y-130614518D03*
D10*
X115050289Y-128877056D03*
%TD*%
D11*
%TO.C,MX14*%
X225781390Y-90185970D03*
X235787036Y-88421704D03*
D10*
X230784213Y-89303837D03*
%TD*%
%TO.C,MX15*%
X179382032Y-126901319D03*
D11*
X174379209Y-127783452D03*
X184384855Y-126019186D03*
%TD*%
D10*
%TO.C,MX4*%
X234442000Y-57912000D03*
D11*
X239522000Y-57912000D03*
X229362000Y-57912000D03*
%TD*%
%TO.C,MX12*%
X198618714Y-97038829D03*
X188613068Y-98803095D03*
D10*
X193615891Y-97920962D03*
%TD*%
D11*
%TO.C,MX6*%
X191262000Y-57912000D03*
X201422000Y-57912000D03*
D10*
X196342000Y-57912000D03*
%TD*%
D11*
%TO.C,MX2*%
X94742000Y-57912000D03*
D10*
X99822000Y-57912000D03*
D11*
X104902000Y-57912000D03*
%TD*%
%TO.C,MX1*%
X85852000Y-57912000D03*
D10*
X80772000Y-57912000D03*
D11*
X75692000Y-57912000D03*
%TD*%
D10*
%TO.C,MX13*%
X211538452Y-89860282D03*
D11*
X206535629Y-90742415D03*
X216541275Y-88978149D03*
%TD*%
%TO.C,MX11*%
X181076858Y-107258598D03*
X171071212Y-109022864D03*
D10*
X176074035Y-108140731D03*
%TD*%
D11*
%TO.C,MX18*%
X239095034Y-107182293D03*
X229089388Y-108946559D03*
D10*
X234092211Y-108064426D03*
%TD*%
D12*
%TO.C,U1*%
X147251000Y-49660000D03*
X141801000Y-49660000D03*
D13*
X142101000Y-52690000D03*
X146951000Y-52690000D03*
D14*
X153416000Y-49530000D03*
X153416000Y-52070000D03*
D15*
X153416000Y-54610000D03*
D14*
X153416000Y-57150000D03*
X153416000Y-59690000D03*
X153416000Y-62230000D03*
X153416000Y-64770000D03*
D15*
X153416000Y-67310000D03*
D14*
X153416000Y-69850000D03*
X153416000Y-72390000D03*
X153416000Y-74930000D03*
X153416000Y-77470000D03*
D15*
X153416000Y-80010000D03*
D14*
X153416000Y-82550000D03*
X153416000Y-85090000D03*
X153416000Y-87630000D03*
X153416000Y-90170000D03*
D15*
X153416000Y-92710000D03*
D14*
X153416000Y-95250000D03*
X153416000Y-97790000D03*
X135636000Y-97790000D03*
X135636000Y-95250000D03*
D15*
X135636000Y-92710000D03*
D14*
X135636000Y-90170000D03*
X135636000Y-87630000D03*
X135636000Y-85090000D03*
X135636000Y-82550000D03*
D15*
X135636000Y-80010000D03*
D14*
X135636000Y-77470000D03*
X135636000Y-74930000D03*
X135636000Y-72390000D03*
X135636000Y-69850000D03*
D15*
X135636000Y-67310000D03*
D14*
X135636000Y-64770000D03*
X135636000Y-62230000D03*
X135636000Y-59690000D03*
X135636000Y-57150000D03*
D15*
X135636000Y-54610000D03*
D14*
X135636000Y-52070000D03*
X135636000Y-49530000D03*
X147066000Y-97560000D03*
D15*
X144526000Y-97560000D03*
D14*
X141986000Y-97560000D03*
%TD*%
M02*
