M48
; DRILL file {KiCad (6.0.4)} date Mon Jul  4 15:55:23 2022
; FORMAT={-:-/ absolute / metric / decimal}
; #@! TF.CreationDate,2022-07-04T15:55:23-04:00
; #@! TF.GenerationSoftware,Kicad,Pcbnew,(6.0.4)
; #@! TF.FileFunction,NonPlated,1,2,NPTH
FMAT,2
METRIC
; #@! TA.AperFunction,NonPlated,NPTH,ComponentDrill
T1C1.500
; #@! TA.AperFunction,NonPlated,NPTH,ComponentDrill
T2C1.750
; #@! TA.AperFunction,NonPlated,NPTH,ComponentDrill
T3C1.800
; #@! TA.AperFunction,NonPlated,NPTH,ComponentDrill
T4C4.000
%
G90
G05
T1
X142.101Y-52.69
X146.951Y-52.69
T2
X74.474Y-114.109
X75.692Y-57.912
X84.022Y-117.584
X85.852Y-57.912
X92.376Y-120.624
X94.742Y-57.912
X98.891Y-102.723
X101.923Y-124.099
X104.902Y-57.912
X108.438Y-106.198
X110.277Y-127.14
X119.824Y-130.615
X149.098Y-137.414
X159.258Y-137.414
X171.071Y-109.023
X172.212Y-57.912
X174.379Y-127.783
X181.077Y-107.259
X182.372Y-57.912
X184.385Y-126.019
X188.613Y-98.803
X191.262Y-57.912
X191.921Y-117.564
X198.619Y-97.039
X201.422Y-57.912
X201.927Y-115.799
X206.536Y-90.742
X209.844Y-109.503
X210.312Y-57.912
X216.541Y-88.978
X219.849Y-107.739
X220.472Y-57.912
X225.781Y-90.186
X229.089Y-108.947
X229.362Y-57.912
X235.787Y-88.422
X239.095Y-107.182
X239.522Y-57.912
T3
X141.801Y-49.66
X147.251Y-49.66
T4
X79.248Y-115.846
X80.772Y-57.912
X97.149Y-122.362
X99.822Y-57.912
X103.665Y-104.46
X115.05Y-128.877
X154.178Y-137.414
X176.074Y-108.141
X177.292Y-57.912
X179.382Y-126.901
X193.616Y-97.921
X196.342Y-57.912
X196.924Y-116.682
X211.538Y-89.86
X214.846Y-108.621
X215.392Y-57.912
X230.784Y-89.304
X234.092Y-108.064
X234.442Y-57.912
T0
M30
